<svg width="28" height="28" viewBox="0 0 48 48" fill="none" xmlns="http://www.w3.org/2000/svg">
<rect width="48" height="48" rx="24" fill="#5181B8"/>
<path fill-rule="evenodd" clip-rule="evenodd" d="M39.2658 16.5346C39.4884 15.7929 39.2658 15.2478 38.2071 15.2478H34.7062C33.816 15.2478 33.4059 15.7187 33.1834 16.238C33.1834 16.238 31.403 20.5773 28.8809 23.396C28.0649 24.2119 27.6941 24.4712 27.249 24.4712C27.0264 24.4712 26.7044 24.2119 26.7044 23.4702V16.5346C26.7044 15.6444 26.4461 15.2478 25.7041 15.2478H20.2028C19.6467 15.2478 19.3121 15.6609 19.3121 16.0525C19.3121 16.8964 20.5729 17.091 20.703 19.4645V24.62C20.703 25.7503 20.4989 25.9553 20.0538 25.9553C18.867 25.9553 15.9804 21.5963 14.268 16.6089C13.9324 15.6394 13.5958 15.2478 12.7011 15.2478H9.20028C8.20005 15.2478 8 15.7187 8 16.238C8 17.1653 9.18703 21.7643 13.5263 27.8467C16.4195 32.0002 20.4949 34.2522 24.2038 34.2522C26.4293 34.2522 26.7044 33.7521 26.7044 32.8907V29.7512C26.7044 28.751 26.9152 28.5514 27.6196 28.5514C28.1392 28.5514 29.0292 28.811 31.1064 30.8137C33.4799 33.187 33.871 34.2522 35.2064 34.2522H38.7072C39.7074 34.2522 40.2075 33.7521 39.919 32.7651C39.6034 31.7814 38.4701 30.3546 36.9663 28.6627C36.1503 27.6982 34.9263 26.6597 34.5557 26.1406C34.0363 25.4729 34.1846 25.1764 34.5557 24.5832C34.5557 24.5832 38.8207 18.5748 39.2658 16.5349V16.5346Z" fill="white"/>
</svg>
